<svg width="64" height="64" viewBox="0 0 64 64" fill="none" xmlns="http://www.w3.org/2000/svg">
<path fill-rule="evenodd" clip-rule="evenodd" d="M49.12 53.2421C48.8208 53.2112 48.5184 53.2433 48.2324 53.3363C47.9464 53.4293 47.6832 53.5812 47.4598 53.7821C47.2364 53.983 47.0578 54.2284 46.9356 54.5025C46.8133 54.7766 46.7501 55.0732 46.7501 55.3731C46.7501 55.6731 46.8133 55.9697 46.9356 56.2438C47.0578 56.5179 47.2364 56.7633 47.4598 56.9642C47.6832 57.1651 47.9464 57.3169 48.2324 57.41C48.5184 57.503 48.8208 57.5351 49.12 57.5042H53.3943C53.6935 57.5351 53.9959 57.503 54.2819 57.41C54.5679 57.3169 54.8311 57.1651 55.0545 56.9642C55.2779 56.7633 55.4565 56.5179 55.5788 56.2438C55.701 55.9697 55.7642 55.6731 55.7642 55.3731C55.7642 55.0732 55.701 54.7766 55.5788 54.5025C55.4565 54.2284 55.2779 53.983 55.0545 53.7821C54.8311 53.5812 54.5679 53.4293 54.2819 53.3363C53.9959 53.2433 53.6935 53.2112 53.3943 53.2421H49.12ZM48.9372 46.9287C48.4072 47.0014 47.9235 47.2686 47.5807 47.6781C47.2378 48.0875 47.0605 48.6098 47.0833 49.1427C47.1062 49.6757 47.3276 50.1809 47.7043 50.5597C48.081 50.9385 48.5858 51.1635 49.12 51.1908H53.3943C53.6935 51.2217 53.9959 51.1896 54.2819 51.0966C54.5679 51.0036 54.8311 50.8517 55.0545 50.6508C55.2779 50.4499 55.4565 50.2045 55.5788 49.9304C55.701 49.6563 55.7642 49.3597 55.7642 49.0597C55.7642 48.7598 55.701 48.4632 55.5788 48.1891C55.4565 47.915 55.2779 47.6696 55.0545 47.4687C54.8311 47.2678 54.5679 47.1159 54.2819 47.0229C53.9959 46.9299 53.6935 46.8978 53.3943 46.9287H48.9372ZM24.48 46.9287H32.3429V59.715H24.48V55.4529H25.6686C26.1973 55.3983 26.6869 55.1503 27.0429 54.7567C27.3988 54.3631 27.5959 53.8519 27.5959 53.3219C27.5959 52.7918 27.3988 52.2807 27.0429 51.8871C26.6869 51.4935 26.1973 51.2454 25.6686 51.1908H24.48V46.9287ZM12.6629 46.9287H20.5715V51.1908H19.04C18.5101 51.2635 18.0264 51.5307 17.6835 51.9402C17.3407 52.3496 17.1633 52.8719 17.1862 53.4048C17.2091 53.9378 17.4305 54.443 17.8072 54.8218C18.1838 55.2006 18.6886 55.4256 19.2229 55.4529H20.5715V59.715H12.6629V46.9287ZM44.8229 44.6495H57.6686V59.6466H44.8229V44.6495ZM25.5086 34.2791C25.2505 34.2896 24.9969 34.3507 24.7624 34.4589C24.528 34.567 24.3172 34.7202 24.1421 34.9096C23.967 35.099 23.831 35.321 23.7419 35.5628C23.6528 35.8046 23.6124 36.0616 23.6229 36.319C23.6334 36.5764 23.6946 36.8292 23.8031 37.063C23.9116 37.2968 24.0652 37.507 24.2552 37.6816C24.4452 37.8563 24.6677 37.9918 24.9103 38.0807C25.1528 38.1695 25.4105 38.2098 25.6686 38.1993H34.2857C34.569 38.2425 34.8583 38.2242 35.1338 38.1455C35.4093 38.0669 35.6645 37.9298 35.8819 37.7436C36.0993 37.5575 36.2738 37.3267 36.3934 37.067C36.513 36.8073 36.575 36.525 36.575 36.2392C36.575 35.9535 36.513 35.6711 36.3934 35.4115C36.2738 35.1518 36.0993 34.921 35.8819 34.7348C35.6645 34.5487 35.4093 34.4116 35.1338 34.3329C34.8583 34.2543 34.569 34.2359 34.2857 34.2791H25.6686C25.6686 34.1424 25.5086 34.1424 25.5086 34.2791ZM10.4457 34.2791C10.1876 34.2896 9.93406 34.3507 9.69958 34.4589C9.46511 34.567 9.25431 34.7202 9.0792 34.9096C8.9041 35.099 8.76812 35.321 8.67904 35.5628C8.58996 35.8046 8.54952 36.0616 8.56003 36.319C8.57053 36.5764 8.63178 36.8292 8.74027 37.063C8.84877 37.2968 9.00238 37.507 9.19234 37.6816C9.3823 37.8563 9.60489 37.9918 9.84741 38.0807C10.0899 38.1695 10.3476 38.2098 10.6057 38.1993H19.1772C19.6985 38.1993 20.1985 37.9928 20.5671 37.6252C20.9358 37.2576 21.1429 36.7591 21.1429 36.2392C21.1429 35.7194 20.9358 35.2208 20.5671 34.8532C20.1985 34.4856 19.6985 34.2791 19.1772 34.2791H10.6057C10.6057 34.1424 10.6057 34.1424 10.4457 34.2791ZM34.2857 25.5954V25.7777H25.6686C25.6686 25.5954 25.5086 25.5954 25.5086 25.7777C25.249 25.7882 24.9939 25.8495 24.7581 25.9583C24.5222 26.067 24.3101 26.2211 24.134 26.4115C23.9578 26.602 23.821 26.8252 23.7313 27.0684C23.6417 27.3116 23.6009 27.5701 23.6115 27.829C23.622 28.0879 23.6835 28.3422 23.7926 28.5774C23.9016 28.8126 24.0561 29.024 24.2471 29.1997C24.4381 29.3753 24.662 29.5118 24.9059 29.6012C25.1498 29.6906 25.409 29.7312 25.6686 29.7207H34.2857C36.96 29.8575 36.96 25.7777 34.2857 25.5954ZM19.4057 25.5954L19.2457 25.7777H10.6057C10.6057 25.5954 10.6057 25.5954 10.4457 25.7777C10.1861 25.7882 9.93107 25.8495 9.69521 25.9583C9.45935 26.067 9.24729 26.2211 9.07112 26.4115C8.89496 26.602 8.75814 26.8252 8.66849 27.0684C8.57883 27.3116 8.53809 27.5701 8.5486 27.829C8.5591 28.0879 8.62065 28.3422 8.72971 28.5774C8.83878 28.8126 8.99323 29.024 9.18426 29.1997C9.37528 29.3753 9.59913 29.5118 9.84303 29.6012C10.0869 29.6906 10.3461 29.7312 10.6057 29.7207H19.1772C19.7258 29.7419 20.2604 29.5448 20.6633 29.173C21.0662 28.8011 21.3045 28.2849 21.3257 27.7378C21.347 27.1908 21.1494 26.6577 20.7764 26.2559C20.4035 25.8541 19.8858 25.6165 19.3372 25.5954H19.4057ZM25.7372 17.0711C25.1916 17.0711 24.6683 17.2873 24.2825 17.6719C23.8968 18.0566 23.68 18.5784 23.68 19.1224C23.68 19.6665 23.8968 20.1882 24.2825 20.5729C24.6683 20.9576 25.1916 21.1737 25.7372 21.1737H34.2857C34.8313 21.1737 35.3546 20.9576 35.7404 20.5729C36.1261 20.1882 36.3429 19.6665 36.3429 19.1224C36.3429 18.5784 36.1261 18.0566 35.7404 17.6719C35.3546 17.2873 34.8313 17.0711 34.2857 17.0711H25.7372ZM10.6743 17.0711C7.95431 17.0711 7.95431 21.3332 10.6743 21.1737H19.2457C19.7913 21.1737 20.3146 20.9576 20.7004 20.5729C21.0861 20.1882 21.3029 19.6665 21.3029 19.1224C21.3029 18.5784 21.0861 18.0566 20.7004 17.6719C20.3146 17.2873 19.7913 17.0711 19.2457 17.0711H10.6743ZM44.96 10.5982H49.2572V25.5954H44.8229L44.96 10.5982ZM34.2857 8.54692H10.6057C7.88574 8.54692 7.88574 12.809 10.6057 12.6267H34.2857C36.96 12.809 36.96 8.70646 34.2857 8.54692ZM4.27431 4.28481H40.8457C40.8457 4.28481 40.6629 43.0313 40.8457 59.715H36.2743V46.9287H36.4343C36.7335 46.9596 37.0359 46.9275 37.3219 46.8345C37.6079 46.7414 37.8711 46.5896 38.0945 46.3887C38.3179 46.1878 38.4965 45.9424 38.6188 45.6683C38.741 45.3942 38.8042 45.0976 38.8042 44.7976C38.8042 44.4977 38.741 44.201 38.6188 43.927C38.4965 43.6529 38.3179 43.4075 38.0945 43.2066C37.8711 43.0057 37.6079 42.8538 37.3219 42.7608C37.0359 42.6678 36.7335 42.6357 36.4343 42.6666H8.5486C8.24938 42.6357 7.94698 42.6678 7.66099 42.7608C7.375 42.8538 7.11179 43.0057 6.88839 43.2066C6.66499 43.4075 6.48638 43.6529 6.36413 43.927C6.24188 44.201 6.17871 44.4977 6.17871 44.7976C6.17871 45.0976 6.24188 45.3942 6.36413 45.6683C6.48638 45.9424 6.66499 46.1878 6.88839 46.3887C7.11179 46.5896 7.375 46.7414 7.66099 46.8345C7.94698 46.9275 8.24938 46.9596 8.5486 46.9287H8.73146V59.715H4.27431V4.28481ZM57.5086 3.92014C57.8383 3.92541 58.1623 4.00627 58.4556 4.15646C58.7489 4.30665 59.0036 4.52213 59.2 4.78623C59.4818 5.00789 59.7072 5.29259 59.8581 5.61728C60.009 5.94197 60.0811 6.29754 60.0686 6.65518V31.9999L55.4972 32.1595C55.1489 32.1477 54.8064 32.0676 54.4892 31.9237C54.172 31.7799 53.8864 31.5751 53.6486 31.3211C53.4109 31.0671 53.2257 30.7688 53.1036 30.4434C52.9815 30.1179 52.9249 29.7717 52.9372 29.4244V25.5954H55.4972C56.0259 25.5408 56.5155 25.2927 56.8715 24.8991C57.2274 24.5055 57.4244 23.9943 57.4244 23.4643C57.4244 22.9343 57.2274 22.4231 56.8715 22.0295C56.5155 21.6359 56.0259 21.3878 55.4972 21.3332H53.0514V14.8603H55.6115C55.9107 14.8912 56.2131 14.8591 56.4991 14.7661C56.785 14.6731 57.0483 14.5212 57.2717 14.3203C57.4951 14.1194 57.6737 13.874 57.7959 13.5999C57.9182 13.3258 57.9813 13.0292 57.9813 12.7293C57.9813 12.4293 57.9182 12.1327 57.7959 11.8586C57.6737 11.5845 57.4951 11.3391 57.2717 11.1382C57.0483 10.9373 56.785 10.7854 56.4991 10.6924C56.2131 10.5994 55.9107 10.5673 55.6115 10.5982H53.0514V3.92014H57.5086ZM2.87321e-05 2.05119V61.7663C-0.00282078 62.3333 0.206372 62.881 0.586756 63.3024C0.967141 63.7239 1.4914 63.9888 2.05717 64.0455H59.8857C60.1731 64.0371 60.4557 63.9706 60.7165 63.8502C60.9774 63.7297 61.211 63.5578 61.4033 63.3447C61.5956 63.1317 61.7425 62.882 61.8353 62.6107C61.928 62.3394 61.9646 62.0521 61.9429 61.7663V42.6666C61.9646 42.3808 61.928 42.0935 61.8353 41.8222C61.7425 41.5509 61.5956 41.3012 61.4033 41.0881C61.211 40.8751 60.9774 40.7031 60.7165 40.5827C60.4557 40.4622 60.1731 40.3958 59.8857 40.3874H44.8229V29.8575H49.12C49.1854 31.5241 49.9002 33.0996 51.1125 34.2488C52.3248 35.3981 53.9389 36.0304 55.6115 36.0113H62.1257C62.621 35.9228 63.0732 35.6738 63.412 35.3029C63.7509 34.932 63.9576 34.46 64 33.96V6.6096C63.9686 4.84896 63.3034 3.15827 62.1257 1.84606C60.904 0.650575 59.2659 -0.0273092 57.5543 -0.0456755H51.3829C51.0963 -0.0673737 50.8082 -0.0308795 50.5361 0.0616004C50.264 0.15408 50.0136 0.300624 49.7999 0.492371C49.5863 0.684117 49.4138 0.917083 49.293 1.17718C49.1722 1.43728 49.1056 1.7191 49.0972 2.00561V6.3133H44.8229V2.05119C44.8171 1.51287 44.6016 0.997898 44.222 0.615108C43.8424 0.232318 43.3284 0.0117093 42.7886 -9.14484e-05H2.05717C1.51524 0.0115338 0.998746 0.231382 0.615455 0.613581C0.232164 0.995781 0.0116872 1.5108 2.87321e-05 2.05119Z" fill="#1BB55C"/>
</svg>
