<svg width="59" height="64" viewBox="0 0 59 64" fill="none" xmlns="http://www.w3.org/2000/svg">
<g clip-path="url(#clip0_42_126)">
<path d="M15.579 11.1019H43.3928C44.6039 11.0974 45.7853 11.4768 46.767 12.1855C47.7487 12.8943 48.4802 13.896 48.8562 15.0464L53.3263 28.395C53.4238 28.6451 53.4565 28.9157 53.4213 29.1818C53.3862 29.4479 53.2844 29.7008 53.1253 29.917C52.9663 30.1333 52.7552 30.3059 52.5115 30.4189C52.2679 30.5318 51.9996 30.5815 51.7317 30.5631H7.29243C7.02448 30.5815 6.75624 30.5318 6.51261 30.4189C6.26897 30.3059 6.05783 30.1333 5.89878 29.917C5.73972 29.7008 5.63791 29.4479 5.60278 29.1818C5.56766 28.9157 5.60036 28.6451 5.69785 28.395L10.1156 15.0987C10.4826 13.9384 11.2102 12.9254 12.1927 12.2066C13.1752 11.4879 14.3614 11.1009 15.579 11.1019ZM15.579 5.56396C13.2004 5.5684 10.8833 6.31985 8.95532 7.71207C7.02736 9.1043 5.58607 11.0669 4.8352 13.3223L0.365136 26.7754C0.0369083 27.8561 -0.0354996 28.9982 0.153627 30.1117C0.342754 31.2251 0.78824 32.2794 1.45493 33.1914C2.12162 34.1033 2.99127 34.8479 3.99526 35.3665C4.99925 35.8851 6.1101 36.1634 7.24015 36.1795H51.6794C52.8139 36.1714 53.9309 35.899 54.9415 35.3839C55.9522 34.8687 56.8286 34.1251 57.5012 33.212C58.1737 32.299 58.6239 31.2418 58.8158 30.1244C59.0077 29.007 58.9361 27.8603 58.6067 26.7754L54.1366 13.3223C53.3769 11.0766 51.9318 9.12541 50.0046 7.74311C48.0774 6.3608 45.765 5.61697 43.3928 5.61621L15.579 5.56396Z" fill="#1BB55C"/>
<path d="M6.90094 30.6157C6.21714 30.6934 5.58678 31.0227 5.13257 31.5394C4.67836 32.0561 4.4328 32.7231 4.44371 33.4108V52.8981C4.45746 55.8453 5.63512 58.6678 7.72054 60.7518C9.80597 62.8357 12.6305 64.0126 15.5797 64.0263H43.3934C46.3426 64.0126 49.1671 62.8357 51.2525 60.7518C53.338 58.6678 54.5156 55.8453 54.5294 52.8981V33.4108C54.5294 32.6729 54.2361 31.9653 53.714 31.4436C53.1919 30.9218 52.4837 30.6287 51.7454 30.6287C51.007 30.6287 50.2989 30.9218 49.7768 31.4436C49.2547 31.9653 48.9614 32.6729 48.9614 33.4108V52.8981C48.9684 53.6308 48.8291 54.3574 48.5518 55.0356C48.2744 55.7139 47.8646 56.33 47.3461 56.8481C46.8277 57.3662 46.2111 57.7757 45.5324 58.0529C44.8537 58.33 44.1265 58.4692 43.3934 58.4622H15.5797C14.8465 58.4692 14.1193 58.33 13.4407 58.0529C12.762 57.7757 12.1454 57.3662 11.6269 56.8481C11.1085 56.33 10.6986 55.7139 10.4213 55.0356C10.144 54.3574 10.0047 53.6308 10.0117 52.8981V33.4108C10.0184 33.0145 9.93998 32.6215 9.78164 32.2581C9.6233 31.8948 9.38875 31.5697 9.09386 31.3047C8.79896 31.0397 8.45059 30.8411 8.07227 30.7222C7.69395 30.6033 7.29451 30.567 6.90094 30.6157Z" fill="#1BB55C"/>
<path d="M23.9451 41.7437C21.7308 41.7574 19.6111 42.6425 18.0453 44.2071C16.4795 45.7718 15.5938 47.8901 15.5801 50.1028V61.2049C15.5801 61.9427 15.8734 62.6503 16.3955 63.1721C16.9176 63.6938 17.6257 63.9869 18.3641 63.9869C19.1024 63.9869 19.8105 63.6938 20.3326 63.1721C20.8547 62.6503 21.1481 61.9427 21.1481 61.2049V50.1028C21.1208 49.7288 21.1744 49.3533 21.3054 49.0018C21.4363 48.6503 21.6414 48.3311 21.9068 48.0659C22.1722 47.8008 22.4916 47.5958 22.8433 47.4649C23.195 47.3341 23.5708 47.2805 23.9451 47.3077C24.3044 47.3069 24.6599 47.38 24.9896 47.5225C25.3193 47.6651 25.6161 47.874 25.8614 48.1363C26.1067 48.3986 26.2952 48.7086 26.4153 49.0469C26.5354 49.3853 26.5843 49.7447 26.5592 50.1028V61.2049C26.5592 61.9462 26.8539 62.6571 27.3784 63.1813C27.903 63.7055 28.6144 64 29.3562 64C30.0981 64 30.8095 63.7055 31.3341 63.1813C31.8586 62.6571 32.1533 61.9462 32.1533 61.2049V50.1028C32.1404 47.9168 31.2763 45.8216 29.7441 44.2613C28.212 42.7009 26.1321 41.7979 23.9451 41.7437Z" fill="#1BB55C"/>
<path d="M40.5973 41.7437C39.9055 41.8107 39.2634 42.1328 38.7963 42.6471C38.3291 43.1614 38.0703 43.8311 38.0703 44.5257C38.0703 45.2203 38.3291 45.89 38.7963 46.4043C39.2634 46.9186 39.9055 47.2407 40.5973 47.3077H43.3943C44.0862 47.2407 44.7282 46.9186 45.1954 46.4043C45.6625 45.89 45.9213 45.2203 45.9213 44.5257C45.9213 43.8311 45.6625 43.1614 45.1954 42.6471C44.7282 42.1328 44.0862 41.8107 43.3943 41.7437H40.5973Z" fill="#1BB55C"/>
<path d="M37.5121 0.0259459C36.8235 0.0976563 36.1868 0.424304 35.7272 0.941598C35.2676 1.45889 35.0184 2.12936 35.0287 2.82105V8.48962C34.991 8.87761 35.035 9.26919 35.1578 9.6392C35.2805 10.0092 35.4794 10.3495 35.7416 10.6381C36.0038 10.9268 36.3235 11.1574 36.6801 11.3152C37.0368 11.4731 37.4226 11.5546 37.8127 11.5546C38.2028 11.5546 38.5885 11.4731 38.9452 11.3152C39.3019 11.1574 39.6216 10.9268 39.8838 10.6381C40.146 10.3495 40.3448 10.0092 40.4676 9.6392C40.5904 9.26919 40.6343 8.87761 40.5967 8.48962V2.82105C40.6318 2.41964 40.5735 2.01557 40.4263 1.64042C40.2792 1.26527 40.0472 0.929226 39.7485 0.658561C39.4498 0.387896 39.0925 0.189951 38.7045 0.0802049C38.3165 -0.0295408 37.9084 -0.0481113 37.5121 0.0259459Z" fill="#1BB55C"/>
<path d="M6.95425 13.9492C6.25825 14.0426 5.62285 14.3941 5.17428 14.9341C4.72571 15.474 4.4968 16.1628 4.53302 16.8636C4.56924 17.5645 4.86794 18.226 5.36978 18.7169C5.87161 19.2078 6.53987 19.4921 7.2418 19.5133H18.3778C19.0696 19.4462 19.7116 19.1242 20.1788 18.6099C20.6459 18.0955 20.9047 17.4258 20.9047 16.7313C20.9047 16.0367 20.6459 15.367 20.1788 14.8527C19.7116 14.3384 19.0696 14.0163 18.3778 13.9492H6.95425Z" fill="#1BB55C"/>
<path d="M43.3942 22.2827C42.7023 22.3498 42.0603 22.6719 41.5931 23.1862C41.126 23.7005 40.8672 24.3702 40.8672 25.0648C40.8672 25.7593 41.126 26.429 41.5931 26.9433C42.0603 27.4577 42.7023 27.7797 43.3942 27.8468H54.5301C55.2219 27.7797 55.864 27.4577 56.3311 26.9433C56.7983 26.429 57.0571 25.7593 57.0571 25.0648C57.0571 24.3702 56.7983 23.7005 56.3311 23.1862C55.864 22.6719 55.2219 22.3498 54.5301 22.2827H43.3942Z" fill="#1BB55C"/>
</g>
<defs>
<clipPath id="clip0_42_126">
<rect width="58.9474" height="64" fill="white"/>
</clipPath>
</defs>
</svg>
