<svg width="71" height="64" viewBox="0 0 71 64" fill="none" xmlns="http://www.w3.org/2000/svg">
<path fill-rule="evenodd" clip-rule="evenodd" d="M66.2831 47.416V59.2763H60.6285C60.6285 54.7049 56.4953 52.1652 52.0831 52.1652H18.9413C13.7178 52.1652 10.3706 54.8573 10.3706 59.2763H4.74133V47.416C26.3456 47.3906 47.5949 47.416 66.2831 47.416ZM9.48311 33.1938H61.5413C61.8571 33.1791 62.1724 33.2309 62.4669 33.346C62.7614 33.4611 63.0284 33.6369 63.2508 33.8619C63.4731 34.087 63.6457 34.3563 63.7575 34.6525C63.8692 34.9487 63.9176 35.265 63.8995 35.5811V42.6668H7.09954V35.5811C7.09615 35.2667 7.15548 34.9547 7.27406 34.6635C7.39265 34.3723 7.56809 34.1078 7.79011 33.8854C8.01212 33.6631 8.27624 33.4874 8.56696 33.3686C8.85768 33.2498 9.16915 33.1904 9.48311 33.1938ZM50.3335 23.9748C50.511 23.9748 50.5363 24.1271 50.6124 24.2541C50.8077 24.843 50.8937 25.4628 50.866 26.0827V28.4446H43.766V26.0827C43.7595 25.5258 43.8277 24.9706 43.9688 24.4319C44.0147 24.3173 44.0833 24.2133 44.1705 24.126C44.2577 24.0387 44.3616 23.9699 44.476 23.924C46.4201 23.6481 48.3944 23.6652 50.3335 23.9748ZM26.4978 23.9748C26.7139 24.0892 26.8906 24.2662 27.0049 24.4827C27.1571 25.0192 27.2255 25.576 27.2078 26.1335V28.4954H20.1078V26.1335C20.0879 25.544 20.1476 24.9546 20.2853 24.3811C20.3849 24.1542 20.5658 23.973 20.7924 23.8732C22.6838 23.5722 24.612 23.5893 26.4978 23.924V23.9748ZM31.5692 4.80015H40.3428C41.7504 4.68317 43.1576 5.03105 44.3492 5.79063C44.5835 5.93191 44.7755 6.13385 44.9049 6.3752C45.0343 6.61654 45.0964 6.88836 45.0845 7.16206C45.0812 7.74686 45.2945 8.31212 45.6833 8.74843C46.0721 9.18475 46.6087 9.46109 47.1892 9.52396C50.8557 9.77006 54.4553 10.6285 57.8392 12.0636C58.3496 12.3104 58.8339 12.6083 59.2845 12.9525V28.4446H55.6077V26.0827C55.6162 24.9787 55.4449 23.8807 55.1006 22.8319C55.3827 22.4815 55.5601 22.0584 55.6124 21.6114C55.6647 21.1644 55.5898 20.7117 55.3963 20.3055C55.2028 19.8993 54.8986 19.5561 54.5187 19.3156C54.1389 19.0751 53.6989 18.947 53.2495 18.9462C52.7445 18.9724 52.2588 19.1493 51.8549 19.4541C50.4006 19.0213 48.8796 18.8578 47.3667 18.9716C45.8621 18.8586 44.3496 19.0221 42.9038 19.4541C42.4788 19.1346 41.9644 18.957 41.4331 18.9462C40.984 18.9408 40.5427 19.0639 40.1611 19.3012C39.7795 19.5384 39.4735 19.8799 39.279 20.2854C39.0846 20.6909 39.0098 21.1436 39.0635 21.5902C39.1172 22.0368 39.2971 22.4588 39.582 22.8065C39.2436 23.8648 39.0809 24.9716 39.1003 26.0827V28.4446H31.9495V26.0827C31.9608 24.9702 31.7894 23.8634 31.4424 22.8065C31.7211 22.4507 31.8931 22.023 31.9386 21.5732C31.984 21.1233 31.9009 20.6697 31.699 20.2653C31.4971 19.8608 31.1847 19.5222 30.7981 19.2886C30.4115 19.0551 29.9666 18.9363 29.5153 18.9462C29.0102 18.9724 28.5245 19.1493 28.1206 19.4541C26.6663 19.0213 25.1453 18.8578 23.6324 18.9716C22.1278 18.8586 20.6153 19.0221 19.1695 19.4541C18.7147 19.0789 18.1361 18.8879 17.5477 18.9186C16.9592 18.9492 16.4036 19.1995 15.9901 19.6199C15.5767 20.0404 15.3353 20.6007 15.3137 21.1905C15.292 21.7802 15.4916 22.3567 15.8731 22.8065C15.5146 23.8606 15.343 24.9694 15.366 26.0827V28.4446H11.8413V13.2065C12.3688 12.7464 12.9802 12.3929 13.6417 12.1652C16.9394 10.8181 20.4165 9.96241 23.962 9.62555C24.538 9.55685 25.0684 9.27799 25.452 8.84227C25.8356 8.40655 26.0454 7.84453 26.0413 7.26364C26.0413 6.98428 26.1681 6.52714 27.0049 5.9938C28.3383 5.14933 29.8904 4.71654 31.4678 4.74936L31.5692 4.80015ZM6.87133 0.0255487C6.24589 0.0558592 5.65809 0.333771 5.23724 0.798147C4.81639 1.26252 4.59696 1.87532 4.62722 2.50174C4.65748 3.12816 4.93496 3.71687 5.39861 4.13838C5.86226 4.55989 6.4741 4.77967 7.09954 4.74936V28.8509C5.69044 29.3078 4.4681 30.2116 3.61721 31.4258C2.76633 32.64 2.33314 34.0985 2.38311 35.5811V42.6414C2.06301 42.6226 1.74258 42.6723 1.44317 42.7873C1.14376 42.9022 0.872249 43.0798 0.646717 43.308C0.421185 43.5363 0.246814 43.8101 0.13522 44.1112C0.0236265 44.4123 -0.0226272 44.7337 -0.000459753 45.0541V61.6382C-0.000477781 61.9506 0.0613492 62.2598 0.181443 62.548C0.301537 62.8362 0.477513 63.0977 0.699186 63.3174C0.920859 63.5371 1.18383 63.7105 1.47287 63.8277C1.76192 63.9449 2.0713 64.0035 2.38311 64.0001H11.8413C12.4668 64.0001 13.0666 63.7513 13.5088 63.3084C13.9511 62.8654 14.1995 62.2647 14.1995 61.6382C14.1334 60.9829 14.2103 60.3209 14.4248 59.6982C14.6393 59.0755 14.9864 58.507 15.442 58.0319C16.4167 57.2137 17.6737 56.8123 18.9413 56.9144H52.0831C52.7171 56.8609 53.3552 56.9461 53.953 57.1642C54.5509 57.3823 55.0942 57.728 55.5453 58.1774C55.9964 58.6269 56.3445 59.1692 56.5655 59.7668C56.7864 60.3644 56.875 61.003 56.8249 61.6382C56.8249 62.2647 57.0733 62.8654 57.5156 63.3084C57.9578 63.7513 58.5577 64.0001 59.1831 64.0001H68.6413C69.2668 64.0001 69.8666 63.7513 70.3088 63.3084C70.7511 62.8654 70.9995 62.2647 70.9995 61.6382V45.0541C70.9996 44.4253 70.7519 43.8219 70.3104 43.375C69.8689 42.928 69.2691 42.6735 68.6413 42.6668V35.5811C68.6235 33.7509 67.9067 31.997 66.6381 30.6795C65.8755 29.8699 64.939 29.2446 63.8995 28.8509V4.74936C64.2092 4.74936 64.5159 4.68826 64.802 4.56957C65.0881 4.45087 65.3481 4.27689 65.567 4.05757C65.786 3.83825 65.9597 3.57787 66.0782 3.29132C66.1968 3.00476 66.2577 2.69762 66.2577 2.38745C66.2577 2.07728 66.1968 1.77015 66.0782 1.48359C65.9597 1.19703 65.786 0.936657 65.567 0.717334C65.3481 0.498011 65.0881 0.324035 64.802 0.205338C64.5159 0.086641 64.2092 0.0255487 63.8995 0.0255487C62.226 0.0255487 60.6285 0.0255487 58.9549 0.0255487C58.6452 0.0405569 58.3415 0.11651 58.0611 0.249073C57.7808 0.381636 57.5292 0.568211 57.3208 0.798147C57.1124 1.02808 56.9513 1.29688 56.8466 1.58918C56.742 1.88148 56.6958 2.19157 56.7108 2.50174C56.7258 2.81191 56.8016 3.11609 56.934 3.3969C57.0663 3.67772 57.2526 3.92967 57.4822 4.13838C57.7118 4.34709 57.9801 4.50847 58.272 4.6133C58.5638 4.71813 58.8734 4.76437 59.1831 4.74936V7.56841C55.9887 6.28216 52.6374 5.42808 49.2178 5.02872C48.8362 3.82441 48.1139 2.75689 47.1385 1.95571C45.1209 0.552971 42.6936 -0.135238 40.2413 0.000151921H31.4678C28.9592 -0.0936921 26.4794 0.56039 24.3424 1.87952C23.1806 2.67306 22.2943 3.80925 21.8067 5.13031C18.3828 5.59445 15.0226 6.44646 11.7906 7.66999V4.74936C12.1003 4.74936 12.4069 4.68826 12.6931 4.56957C12.9792 4.45087 13.2391 4.27689 13.4581 4.05757C13.6771 3.83825 13.8508 3.57787 13.9693 3.29132C14.0878 3.00476 14.1488 2.69762 14.1488 2.38745C14.1488 2.07728 14.0878 1.77015 13.9693 1.48359C13.8508 1.19703 13.6771 0.936657 13.4581 0.717334C13.2391 0.498011 12.9792 0.324035 12.6931 0.205338C12.4069 0.086641 12.1003 0.0255487 11.7906 0.0255487C10.1424 0.000151897 8.3674 0.000151897 6.87133 0.0255487Z" fill="#1BB55C"/>
</svg>
