<svg width="183" height="68" viewBox="0 0 183 68" fill="none" xmlns="http://www.w3.org/2000/svg">
<path fill-rule="evenodd" clip-rule="evenodd" d="M67.887 14.3339L36.7999 40.877L26.5645 29.4623L57.6515 2.91923L67.887 14.3339Z" fill="white"/>
<path d="M123.758 37.5186H111.903L104.509 25.7908L97.1937 37.5186H85.5977L98.1795 18.323L86.35 0H97.7125L104.561 11.5995L111.15 0H122.85L110.839 19.1186L123.758 37.5186Z" fill="white"/>
<path d="M141.58 13.9091L148.118 0H159.221L146.743 22.8653V37.5186H136.418V23.1733L123.94 0H135.095L141.58 13.9091Z" fill="white"/>
<path d="M100.694 60.0805C100.694 61.3968 100.355 62.5678 99.6767 63.5937C98.9985 64.61 98.0206 65.4036 96.7429 65.9746C95.4653 66.5359 93.9664 66.8166 92.2465 66.8166C90.8116 66.8166 89.6076 66.7198 88.6346 66.5263C87.6616 66.323 86.6493 65.9746 85.5977 65.481V60.3709C86.7083 60.9322 87.8631 61.3726 89.0621 61.6919C90.2612 62.0016 91.3619 62.1565 92.3644 62.1565C93.2293 62.1565 93.8632 62.0113 94.2662 61.721C94.6692 61.4209 94.8706 61.0387 94.8706 60.5741C94.8706 60.2837 94.7871 60.0321 94.62 59.8192C94.4628 59.5966 94.2023 59.374 93.8387 59.1514C93.4849 58.9288 92.5315 58.4739 90.9786 57.7867C89.5732 57.1577 88.5167 56.5479 87.809 55.9575C87.1112 55.3672 86.5903 54.6897 86.2463 53.9251C85.9122 53.1605 85.7451 52.2556 85.7451 51.2103C85.7451 49.2553 86.4675 47.731 87.9122 46.6373C89.357 45.5437 91.3423 44.9969 93.8682 44.9969C96.0992 44.9969 98.3744 45.505 100.694 46.5212L98.9101 50.949C96.8953 50.0393 95.1557 49.5844 93.6912 49.5844C92.9345 49.5844 92.3841 49.715 92.0401 49.9763C91.6961 50.2377 91.5241 50.5619 91.5241 50.949C91.5241 51.3652 91.7403 51.7378 92.1728 52.0669C92.6151 52.3959 93.8043 52.996 95.7404 53.867C97.598 54.6897 98.8855 55.5752 99.603 56.5237C100.33 57.4625 100.694 58.6481 100.694 60.0805Z" fill="white"/>
<path d="M111.869 62.3307C112.645 62.3307 113.574 62.142 114.655 61.7645V65.902C113.879 66.2311 113.137 66.4633 112.429 66.5988C111.731 66.744 110.91 66.8166 109.967 66.8166C108.031 66.8166 106.635 66.352 105.78 65.4229C104.925 64.4841 104.497 63.0469 104.497 61.1112V54.3316H102.478V52.0233L105.043 50.2377L106.532 46.7825H110.306V50.078H114.404V54.3316H110.306V60.7338C110.306 61.7984 110.827 62.3307 111.869 62.3307Z" fill="white"/>
<path d="M129.471 66.5263L128.749 64.4793H128.41C127.928 65.2342 127.255 65.8149 126.39 66.2214C125.535 66.6182 124.527 66.8166 123.368 66.8166C121.53 66.8166 120.1 66.294 119.078 65.2487C118.056 64.1938 117.544 62.7082 117.544 60.7919V50.078H123.309V59.0643C123.309 60.1386 123.461 60.9515 123.766 61.5032C124.08 62.0549 124.591 62.3307 125.299 62.3307C126.292 62.3307 126.999 61.9484 127.422 61.1838C127.845 60.4096 128.056 59.1078 128.056 57.2786V50.078H133.82V66.5263H129.471Z" fill="white"/>
<path d="M142.99 66.8166C141.801 66.8166 140.759 66.4827 139.865 65.8149C138.98 65.1471 138.292 64.1647 137.801 62.8679C137.319 61.571 137.078 60.0563 137.078 58.3239C137.078 55.6527 137.624 53.5622 138.715 52.0523C139.806 50.5425 141.304 49.7876 143.211 49.7876C144.145 49.7876 144.961 49.9715 145.658 50.3393C146.366 50.7071 147.01 51.3265 147.59 52.1975H147.708C147.521 50.9103 147.427 49.6231 147.427 48.3359V43.9371H153.236V66.5263H148.887L147.649 64.4503H147.427C146.435 66.0278 144.956 66.8166 142.99 66.8166ZM145.349 62.3307C146.273 62.3307 146.921 62.0452 147.295 61.4742C147.678 60.9032 147.884 60.0224 147.914 58.832V58.382C147.914 56.9302 147.703 55.8995 147.28 55.2897C146.857 54.6703 146.194 54.3606 145.29 54.3606C144.533 54.3606 143.943 54.7139 143.521 55.4204C143.108 56.1172 142.901 57.1141 142.901 58.411C142.901 59.6885 143.113 60.6612 143.535 61.329C143.958 61.9968 144.562 62.3307 145.349 62.3307Z" fill="white"/>
<path d="M163.025 66.5263H157.261V50.078H163.025V66.5263ZM157.113 45.984C157.113 45.1324 157.354 44.4984 157.836 44.0823C158.317 43.6661 159.094 43.458 160.165 43.458C161.236 43.458 162.017 43.6709 162.509 44.0968C163 44.5226 163.246 45.1517 163.246 45.984C163.246 47.6487 162.219 48.4811 160.165 48.4811C158.13 48.4811 157.113 47.6487 157.113 45.984Z" fill="white"/>
<path d="M183.001 58.2658C183.001 60.9564 182.264 63.0566 180.79 64.5664C179.325 66.0665 177.271 66.8166 174.627 66.8166C172.091 66.8166 170.072 66.0472 168.568 64.5083C167.074 62.9695 166.327 60.8886 166.327 58.2658C166.327 55.5849 167.059 53.5041 168.524 52.0233C169.998 50.5329 172.062 49.7876 174.716 49.7876C176.357 49.7876 177.807 50.1312 179.065 50.8184C180.323 51.5055 181.291 52.4927 181.969 53.7799C182.657 55.0575 183.001 56.5528 183.001 58.2658ZM172.18 58.2658C172.18 59.6789 172.372 60.758 172.755 61.5032C173.138 62.2388 173.782 62.6065 174.686 62.6065C175.581 62.6065 176.21 62.2388 176.573 61.5032C176.947 60.758 177.133 59.6789 177.133 58.2658C177.133 56.8625 176.947 55.8027 176.573 55.0865C176.2 54.3703 175.561 54.0122 174.657 54.0122C173.772 54.0122 173.138 54.3703 172.755 55.0865C172.372 55.793 172.18 56.8528 172.18 58.2658Z" fill="white"/>
<path fill-rule="evenodd" clip-rule="evenodd" d="M53.7157 67.156L0 10.3381L11.2198 0L64.9355 56.8179L53.7157 67.156Z" fill="white"/>
</svg>
